<?xml version="1.0" encoding="UTF-8" standalone="no"?>
<!-- Created with Inkscape (http://www.inkscape.org/) -->

<svg
   version="1.1"
   id="svg2"
   width="250"
   height="250"
   viewBox="0 0 250 250"
   sodipodi:docname="icon.svg"
   inkscape:version="1.1 (c4e8f9ed74, 2021-05-24)"
   xmlns:inkscape="http://www.inkscape.org/namespaces/inkscape"
   xmlns:sodipodi="http://sodipodi.sourceforge.net/DTD/sodipodi-0.dtd"
   xmlns="http://www.w3.org/2000/svg"
   xmlns:svg="http://www.w3.org/2000/svg">
  <defs
     id="defs6" />
  <sodipodi:namedview
     id="namedview4"
     pagecolor="#ffffff"
     bordercolor="#666666"
     borderopacity="1.0"
     inkscape:pageshadow="2"
     inkscape:pageopacity="0.0"
     inkscape:pagecheckerboard="0"
     showgrid="false"
     width="129px"
     inkscape:zoom="1.6132813"
     inkscape:cx="138.2276"
     inkscape:cy="220.97821"
     inkscape:window-width="1920"
     inkscape:window-height="1011"
     inkscape:window-x="0"
     inkscape:window-y="32"
     inkscape:window-maximized="1"
     inkscape:current-layer="g8" />
  <g
     inkscape:groupmode="layer"
     inkscape:label="Image"
     id="g8">
    <g
       id="g1761"
       transform="matrix(1.4910324,0,0,1.4910324,29.684528,30.238565)">
      <path
         style="fill:#0c0c0c;stroke:none"
         d="M 14.024638,4.4605697 C -0.14777611,8.9057397 4.0239079,28.39769 4.0246379,39.80779 c 2.3e-4,3.5159 -0.76499,13.6137 5.7761997,11.1991 3.8798004,-1.4322 3.2184004,-6.9426 3.2238004,-10.1991 0.0108,-6.4558 -2.6732,-20.7273 2.3179,-25.5664 8.3646,-8.1097703 25.448,2.8523 34.233,-3.4614 4.0788,-2.9313503 -0.1086,-7.2685803 -3.5663,-7.8240503 -8.5363,-1.37133 -23.733,-2.0835 -31.9846,0.50463 m 65.2292,0.08951 c -4.568,2.14731 -2.4029,7.4094103 1.8148,8.1096103 8.2944,1.3768 26.566002,-4.1191003 32.353002,3.3765 4.492,5.8196 1.474,20.6864 1.608,27.7708 0.063,3.3563 1.042,8.7854 5.851,7.2886 3.733,-1.1614 3.138,-6.2604 3.144,-9.2878 0.018,-8.5609 2.251,-20.9877 -1.009,-28.9992 -4.919,-12.08745492 -20.587,-9.0008003 -30.991002,-9.0008003 -3.8269,0 -9.2164,-0.92859 -12.7708,0.74229 M 26.253038,23.55009 c -2.8963,1.3529 -3.1238,4.4316 -3.213,7.2585 -0.2174,6.8935 -2.8238,22.7721 1.1636,28.5656 3.3248,4.8307 28.5724,3.9986 33.6729,1.6913 3.0018,-1.358 3.0889,-4.3679 3.1435,-7.2585 0.1309,-6.9351 2.8818,-22.8293 -1.0232,-28.6813 -1.7275,-2.5888 -5.247,-2.2984 -7.9722,-2.3171 -7.12,-0.049 -19.2589,-2.3008 -25.7716,0.7415 m 43.0895,0.2855 c -4.2803,2.8562 -2.3179,13.5146 -2.3179,17.9722 0,4.719 -1.6894,13.6101 1.0278,17.6821 1.7275,2.5888 5.247,2.2984 7.9722,2.3171 6.6228,0.0456 20.9769,2.6688 26.566002,-1.1782 4.346,-2.9908 2.434,-13.2615 2.434,-17.821 0,-4.7672 1.645,-13.4638 -1.179,-17.5664 -1.734,-2.5187 -5.103601,-2.3918 -7.821002,-2.4297 -6.552,-0.0916 -21.1349,-2.6777 -26.6821,1.0239 m -15.3179,5.9722 v 25 h -24 v -25 h 24 m 44.000001,0 v 25 H 74.024638 v -25 h 24.000001 m -60.000001,8 v 9 h 9 v -9 h -9 m 43,0 v 9 h 9 v -9 h -9 m -55.6821,30.0278 c -4.1592,2.7754 -2.3179,12.66 -2.3179,16.9722 0,4.719 -1.6894,13.6101 1.0278,17.682 3.4785,5.213 21.2919,2.321 26.9722,2.318 2.4291,-10e-4 6.2164,0.624 8.2577,-1.028 3.5426,-2.866 1.7423,-12.9034 1.7423,-16.972 0,-4.5131 1.8951,-14.7062 -1.0278,-18.3966 -1.717,-2.1679 -5.5525,-1.5984 -7.9722,-1.6034 -6.6171,-0.0136 -21.0762,-2.713 -26.6821,1.0278 m 43.6821,0.9722 c 0.0059,7.6574 1.0269,9.9718 9,10 v -10 h -9 m 24,0 c 0.0059,7.6574 1.0269,9.9718 9.000002,10 v -10 h -9.000002 m -39,5 v 24 h -24 v -24 h 24 m -45.9606504,3.0062 c -4.5866297,0.0702 -4.0329097,5.8669 -4.0393497,8.9938 -0.01813,8.8058 -2.3672,21.769 1.00926,29.996 4.6011397,11.211 32.7787401,10.555 42.8811401,7.686 5.0823,-1.443 3.3793,-7.208 -0.9344,-8.364 -7.8364,-2.1 -27.9171,4.402 -32.777,-3.546 -3.8272,-6.26 -1.0488,-19.6054 -1.1836,-26.772 -0.0619,-3.2882 -0.5584,-8.0611 -4.9560504,-7.9938 m 110.9996524,0.1697 c -4.168,0.52 -4.017,5.7339 -4.038,8.8241 -0.045,6.4633 2.94,22.685 -2.435,27.258 -8.441,7.181 -25.984902,-3.884 -34.232702,3.345 -3.8849,3.405 -0.1243,6.996 3.6821,7.338 9.3428,0.84 22.883602,1.917 31.983602,-0.36 13.897,-3.478 10.001,-22.9641 10.001,-33.581 0,-3.5775 1.241,-13.5977 -4.961,-12.8241 m -81.039002,3.8241 v 10 c 11.2434,-0.0397 11.2434,-9.9603 0,-10 m 43,0 c 0.0059,7.6574 1.0269,9.9718 9,10 v -10 h -9 m -12,12 v 10 h 9 v -10 h -9 m 33.000002,10 v -10 c -11.243402,0.0397 -11.243302,9.96 0,10 z"
         id="path104" />
      <path
         style="fill:none;stroke:#000000;stroke-width:7.4;stroke-linecap:round;stroke-linejoin:round;stroke-miterlimit:4;stroke-dasharray:none;stroke-opacity:1"
         d="M -12.916744,90.487591 140.91675,91.452652"
         id="path389" />
    </g>
  </g>
</svg>
